fd_1_states
version=1
nRows=27
nColumns=17
inDegrees=yes

# SIMM Motion File Header:
name fd_1_states
datacolumns 17
datarows 27
otherdata 1
range 0.25259977 0.30175081
endheader
time	/jointset/r_shoulder/r_shoulder_elev/value	/jointset/r_shoulder/r_shoulder_elev/speed	/jointset/r_elbow/r_elbow_flex/value	/jointset/r_elbow/r_elbow_flex/speed	/forceset/TRIlong/activation	/forceset/TRIlong/fiber_length	/forceset/TRIlat/activation	/forceset/TRIlat/fiber_length	/forceset/TRImed/activation	/forceset/TRImed/fiber_length	/forceset/BIClong/activation	/forceset/BIClong/fiber_length	/forceset/BICshort/activation	/forceset/BICshort/fiber_length	/forceset/BRA/activation	/forceset/BRA/fiber_length
      0.25259977	     -0.02045925	     -0.17258914	     35.42255706	    140.49080473	      0.02045892	      0.15031851	      0.05050008	      0.08395014	      0.05084724	      0.07899725	      0.29897325	      0.13551266	      0.07018024	      0.13571895	      0.02437493	      0.08507350
      0.25443957	     -0.02077831	     -0.17165641	     35.68103357	    140.48463331	      0.02044785	      0.15042130	      0.05128129	      0.08404582	      0.05161277	      0.07909350	      0.30207147	      0.13537108	      0.07007443	      0.13559307	      0.02431704	      0.08501636
      0.25751232	     -0.02127964	     -0.15407800	     36.11262406	    140.42808217	      0.02042996	      0.15059283	      0.05213831	      0.08420984	      0.05245292	      0.07925819	      0.30605991	      0.13513322	      0.06990420	      0.13538152	      0.02422350	      0.08492092
      0.25997644	     -0.02165091	     -0.15019768	     36.45862774	    140.41402147	      0.02041613	      0.15073012	      0.05256160	      0.08434429	      0.05286806	      0.07939281	      0.30844048	      0.13494251	      0.06977333	      0.13521070	      0.02415124	      0.08484447
      0.26062321	     -0.02174869	     -0.15224965	     36.54944416	    140.41934712	      0.02041258	      0.15076614	      0.05299335	      0.08437923	      0.05326898	      0.07942781	      0.30967878	      0.13489244	      0.06967933	      0.13516572	      0.02411827	      0.08482442
      0.26126997	     -0.02184767	     -0.15357601	     36.64026364	    140.42244726	      0.02040906	      0.15080214	      0.05344397	      0.08441296	      0.05368666	      0.07946176	      0.31097052	      0.13484209	      0.06957424	      0.13512074	      0.02408273	      0.08480441
      0.26338572	     -0.02216526	     -0.14217020	     36.93733736	    140.38577232	      0.02039773	      0.15091987	      0.05460934	      0.08452175	      0.05476715	      0.07957169	      0.31462664	      0.13467609	      0.06923775	      0.13497358	      0.02396859	      0.08473908
      0.26550147	     -0.02243605	     -0.11174016	     37.23426678	    140.29330293	      0.02038673	      0.15103746	      0.05541738	      0.08463230	      0.05551660	      0.07968326	      0.31755253	      0.13450906	      0.06891210	      0.13482620	      0.02385769	      0.08467392
      0.26925369	     -0.02274248	     -0.05468278	     37.76033940	    140.12177419	      0.02036795	      0.15124575	      0.05629215	      0.08483391	      0.05632815	      0.07988585	      0.32139153	      0.13421271	      0.06836012	      0.13456384	      0.02366864	      0.08455863
      0.27081353	     -0.02281629	     -0.04135168	     37.97887173	    140.08110153	      0.02036042	      0.15133202	      0.05672896	      0.08491869	      0.05674175	      0.07997078	      0.32308133	      0.13408985	      0.06817134	      0.13445429	      0.02359283	      0.08451080
      0.27271447	     -0.02288023	     -0.02368003	     38.24511174	    140.02611714	      0.02035144	      0.15143718	      0.05781994	      0.08501796	      0.05778915	      0.08007050	      0.32649986	      0.13393892	      0.06806657	      0.13431999	      0.02350258	      0.08445258
      0.27461541	     -0.02289817	      0.00661041	     38.51120979	    139.93319816	      0.02034269	      0.15154224	      0.05860709	      0.08511686	      0.05854491	      0.08016998	      0.32930765	      0.13378679	      0.06796478	      0.13418476	      0.02341462	      0.08439441
      0.27764215	     -0.02279349	      0.06168480	     38.93449413	    139.76543188	      0.02032921	      0.15170929	      0.05943515	      0.08527761	      0.05933996	      0.08033134	      0.33278883	      0.13354376	      0.06780866	      0.13396775	      0.02327914	      0.08430196
      0.27998580	     -0.02261142	      0.09059911	     39.26194055	    139.67648839	      0.02031913	      0.15183832	      0.05983921	      0.08540426	      0.05972790	      0.08045817	      0.33483718	      0.13335579	      0.06769259	      0.13379843	      0.02317798	      0.08423051
      0.28064204	     -0.02255040	      0.09517917	     39.35359637	    139.66183367	      0.02031637	      0.15187443	      0.06009946	      0.08543969	      0.06013026	      0.08049337	      0.33610569	      0.13330314	      0.06756903	      0.13375088	      0.02315022	      0.08421052
      0.28129828	     -0.02248655	      0.09947237	     39.44524304	    139.64793752	      0.02031363	      0.15191052	      0.06036452	      0.08547461	      0.06054943	      0.08052762	      0.33744072	      0.13325019	      0.06742848	      0.13370338	      0.02312271	      0.08419054
      0.28357062	     -0.02223978	      0.11926337	     39.76250457	    139.58528964	      0.02030432	      0.15203540	      0.06108398	      0.08559502	      0.06168660	      0.08064504	      0.34143015	      0.13306525	      0.06695274	      0.13353913	      0.02302929	      0.08412142
      0.28584296	     -0.02194427	      0.13993778	     40.07961423	    139.52172390	      0.02029528	      0.15216010	      0.06157322	      0.08571657	      0.06245965	      0.08076407	      0.34460033	      0.13287901	      0.06649348	      0.13337494	      0.02293870	      0.08405238
      0.28993348	     -0.02134914	      0.14045954	     40.65026535	    139.52145833	      0.02027969	      0.15238440	      0.06209434	      0.08593859	      0.06328341	      0.08098312	      0.34877170	      0.13254343	      0.06570639	      0.13307865	      0.02278244	      0.08392831
      0.29083454	     -0.02122669	      0.13125184	     40.77599535	    139.54972488	      0.02027637	      0.15243351	      0.06277430	      0.08598660	      0.06384400	      0.08103102	      0.35034196	      0.13246950	      0.06551192	      0.13301319	      0.02274916	      0.08390101
      0.29196590	     -0.02108381	      0.12237005	     40.93389240	    139.57694475	      0.02027226	      0.15249530	      0.06362847	      0.08604406	      0.06453623	      0.08108933	      0.35232466	      0.13237610	      0.06526469	      0.13293092	      0.02270795	      0.08386674
      0.29442045	     -0.02078465	      0.12666378	     41.27649723	    139.56539932	      0.02026354	      0.15262937	      0.06500380	      0.08616814	      0.06565211	      0.08121599	      0.35593070	      0.13217216	      0.06474294	      0.13275204	      0.02262065	      0.08379242
      0.29687501	     -0.02044802	      0.14883349	     41.61899383	    139.50096454	      0.02025510	      0.15276327	      0.06591314	      0.08629510	      0.06639082	      0.08134496	      0.35876130	      0.13196753	      0.06424062	      0.13257247	      0.02253619	      0.08371817
      0.29943168	     -0.02003974	      0.16847604	     41.97557084	    139.44423364	      0.02024660	      0.15290252	      0.06653562	      0.08643029	      0.06689694	      0.08148141	      0.36106923	      0.13175452	      0.06373722	      0.13238456	      0.02245112	      0.08364091
      0.30020472	     -0.01990833	      0.17118379	     42.08336414	    139.43649701	      0.02024408	      0.15294457	      0.06672848	      0.08647159	      0.06705264	      0.08152297	      0.36176400	      0.13169022	      0.06357699	      0.13232755	      0.02242597	      0.08361756
      0.30097777	     -0.01977542	      0.17268937	     42.19115314	    139.43212215	      0.02024159	      0.15298660	      0.06727098	      0.08651209	      0.06748444	      0.08156388	      0.36317497	      0.13162575	      0.06332688	      0.13227054	      0.02240108	      0.08359423
      0.30175081	     -0.01964112	      0.17505150	     42.29893799	    139.42496646	      0.02023913	      0.15302862	      0.06777226	      0.08655168	      0.06788343	      0.08160410	      0.36453536	      0.13156097	      0.06307328	      0.13221359	      0.02237645	      0.08357090
